# xmcd
#
# Track frame offsets:
#	150
#	20495
#	37442
#	53672
#	71840
#	90222
#	107082
#	120265
#	135120
#	154392
#	171587
#	187775
#
# Disc length: 2749 seconds
#
# Revision: 3
# Processed by: cddbd v1.5.2PL0 Copyright (c) Steve Scherf et al.
# Submitted via: EasyCDDAExtractor 10.0.3.1
#
DISCID=990abb0c
DTITLE=cool - 4_5
DYEAR=1900
DGENRE=Other
TTITLE0=슬퍼지려 하기 전에
TTITLE1=십계(십계명)
TTITLE2=미절(Misery)
TTITLE3=날아 날아
TTITLE4=나의 바램
TTITLE5=친구가 연인이 되기까지
TTITLE6=북에서 온 민숙이
TTITLE7=클레멘타인
TTITLE8=송인
TTITLE9=눈속의 여인
TTITLE10=애상
TTITLE11=약속
EXTD=ID3G:  12
EXTT0=
EXTT1=
EXTT2=
EXTT3=
EXTT4=
EXTT5=
EXTT6=
EXTT7=
EXTT8=
EXTT9=
EXTT10=
EXTT11=
PLAYORDER=
